<?xml version="1.0" standalone="no"?>
<!DOCTYPE svg PUBLIC "-//W3C//DTD SVG 20010904//EN"
 "http://www.w3.org/TR/2001/REC-SVG-20010904/DTD/svg10.dtd">
<svg version="1.0" xmlns="http://www.w3.org/2000/svg"
 width="578.000000pt" height="451.000000pt" viewBox="0 0 578.000000 451.000000"
 preserveAspectRatio="xMidYMid meet">

<g transform="translate(0.000000,451.000000) scale(0.100000,-0.100000)"
fill="#000000" stroke="none">
<path d="M3144 4182 c-11 -9 -50 -39 -85 -66 l-64 -50 105 -22 c58 -12 131
-32 163 -44 l58 -22 56 34 c30 18 60 32 65 30 5 -1 7 2 3 8 -3 5 -2 10 3 10 6
0 12 7 15 15 7 17 -67 54 -192 96 -98 34 -99 34 -127 11z"/>
<path d="M3720 3803 c-30 -25 -56 -46 -57 -47 -1 -1 21 -29 50 -62 29 -33 70
-87 91 -120 33 -51 44 -61 68 -61 16 0 24 3 18 7 -5 3 7 23 30 45 22 22 40 45
40 52 0 17 -147 211 -168 222 -14 7 -30 -1 -72 -36z"/>
<path d="M2596 3654 c-35 -34 -5 -94 48 -94 45 0 56 -16 56 -77 0 -46 -3 -53
-20 -53 -18 0 -20 -7 -20 -80 l0 -80 -40 0 -40 0 0 -40 0 -40 -79 0 c-75 0
-80 -1 -83 -22 -2 -19 -10 -24 -47 -26 -34 -3 -49 2 -67 19 -13 12 -21 26 -18
31 11 18 -6 55 -31 66 -39 18 -84 -9 -85 -50 0 -27 37 -58 68 -58 16 0 37 -9
47 -20 14 -15 31 -20 72 -20 46 0 56 -3 60 -20 5 -18 14 -20 84 -20 78 0 79 0
79 -25 0 -25 -1 -25 -79 -25 -70 0 -79 -2 -84 -20 -4 -17 -14 -20 -66 -20 -48
0 -65 4 -81 20 -26 26 -55 25 -81 -1 -26 -26 -21 -57 12 -81 22 -16 29 -17 52
-7 15 7 27 16 27 21 0 4 32 8 70 8 63 0 70 -2 70 -20 0 -18 7 -20 80 -20 73 0
80 -2 80 -20 0 -18 -7 -20 -80 -20 -73 0 -80 -2 -80 -20 0 -18 -7 -20 -58 -20
-49 0 -62 -4 -82 -25 -14 -15 -35 -25 -50 -25 -29 0 -60 -27 -60 -51 0 -29 31
-59 60 -59 32 0 66 39 57 64 -3 7 1 23 9 35 12 17 25 21 70 21 47 0 54 -2 54
-20 0 -18 7 -20 80 -20 l80 0 0 -40 0 -40 40 0 40 0 0 -85 c0 -78 2 -85 20
-85 17 0 20 -7 20 -48 0 -50 -26 -92 -49 -78 -12 8 -52 -11 -63 -28 -21 -31
12 -86 52 -86 30 0 63 38 57 66 -3 16 4 30 19 45 19 18 24 33 24 76 0 46 3 53
20 53 18 0 20 7 20 86 0 83 1 85 23 82 20 -3 22 -9 25 -85 3 -75 5 -83 22 -83
18 0 20 -7 20 -58 0 -46 -4 -63 -20 -77 -39 -35 -14 -105 37 -105 48 0 70 71
33 105 -16 14 -20 31 -20 77 0 51 2 58 20 58 17 0 19 8 22 83 3 76 5 82 26 85
21 3 22 1 22 -82 0 -79 2 -86 20 -86 17 0 20 -7 20 -53 0 -43 5 -58 24 -76 15
-15 22 -29 19 -45 -6 -28 27 -66 57 -66 40 0 73 55 52 86 -11 17 -51 36 -63
28 -23 -14 -49 28 -49 78 0 41 3 48 20 48 18 0 20 7 20 85 l0 85 40 0 40 0 0
40 0 40 80 0 c73 0 80 2 80 20 0 17 7 20 53 20 59 0 77 -12 77 -50 0 -39 26
-70 60 -70 30 0 60 30 60 61 0 23 -32 49 -62 49 -13 0 -35 11 -48 25 -20 21
-33 25 -82 25 -51 0 -58 2 -58 20 0 18 -7 20 -80 20 -73 0 -80 2 -80 20 0 18
7 20 80 20 73 0 80 2 80 20 0 18 7 20 66 20 45 0 70 -5 78 -14 6 -8 20 -17 32
-20 26 -8 74 28 74 55 0 25 -35 59 -60 59 -11 0 -29 -9 -40 -20 -16 -16 -33
-20 -81 -20 -52 0 -62 3 -66 20 -5 18 -14 20 -84 20 -78 0 -79 0 -79 25 0 25
1 25 79 25 70 0 79 2 84 20 4 17 14 20 60 20 41 0 58 5 72 20 10 11 31 20 47
20 31 0 68 31 68 58 -1 41 -46 68 -85 50 -25 -11 -42 -48 -31 -66 3 -5 -5 -19
-18 -31 -18 -17 -33 -22 -67 -19 -37 2 -45 7 -47 26 -3 21 -8 22 -83 22 l-79
0 0 40 0 40 -40 0 -40 0 0 80 c0 73 -2 80 -20 80 -17 0 -20 7 -20 53 0 61 11
77 57 77 40 0 69 36 57 72 -8 29 -22 38 -55 38 -32 0 -63 -32 -56 -59 3 -13
-4 -28 -19 -42 -20 -19 -24 -32 -24 -81 0 -51 -2 -58 -20 -58 -18 0 -20 -7
-20 -80 0 -79 0 -80 -25 -80 -25 0 -25 1 -25 79 0 70 -2 79 -20 84 -17 4 -20
14 -20 64 0 46 4 62 20 76 22 19 27 66 8 85 -16 16 -70 16 -86 0 -19 -19 -14
-66 8 -85 16 -14 20 -30 20 -76 0 -50 -3 -60 -20 -64 -18 -5 -20 -14 -20 -84
0 -78 0 -79 -25 -79 -25 0 -25 1 -25 80 0 73 -2 80 -20 80 -18 0 -20 7 -20 58
0 46 -4 63 -20 77 -11 10 -20 30 -20 45 0 51 -68 80 -104 44z m62 -37 c2 -12
-3 -17 -17 -17 -12 0 -21 6 -21 13 0 31 32 34 38 4z m247 13 c4 -6 1 -18 -6
-26 -11 -13 -14 -13 -27 0 -8 8 -11 19 -8 25 9 14 33 14 41 1z m243 -13 c2
-12 -3 -17 -17 -17 -12 0 -21 6 -21 13 0 31 32 34 38 4z m-408 -287 c0 -53 -2
-60 -20 -60 -18 0 -20 7 -20 60 0 53 2 60 20 60 18 0 20 -7 20 -60z m170 0 c0
-57 -1 -60 -25 -60 -24 0 -25 3 -25 60 0 57 1 60 25 60 24 0 25 -3 25 -60z
m160 0 c0 -53 -2 -60 -20 -60 -18 0 -20 7 -20 60 0 53 2 60 20 60 18 0 20 -7
20 -60z m-820 -120 c0 -13 -7 -20 -20 -20 -19 0 -27 20 -13 33 13 14 33 6 33
-13z m900 -250 l0 -270 -265 0 -265 0 0 270 0 270 265 0 265 0 0 -270z m408
247 c2 -12 -3 -17 -17 -17 -15 0 -21 6 -21 21 0 25 33 22 38 -4z m-978 -82 c0
-24 -3 -25 -59 -25 -60 0 -77 9 -67 35 4 11 22 15 66 15 57 0 60 -1 60 -25z
m735 0 c0 -18 -8 -20 -62 -23 -62 -3 -63 -2 -63 23 0 25 1 26 63 23 54 -3 62
-5 62 -23z m-1068 -151 c8 -21 -13 -42 -28 -27 -13 13 -5 43 11 43 6 0 13 -7
17 -16z m333 -9 c0 -24 -2 -25 -65 -25 -56 0 -65 2 -65 18 0 28 8 32 72 32 55
0 58 -1 58 -25z m738 -2 c3 -22 0 -23 -62 -23 -64 0 -66 1 -66 25 0 25 1 26
63 23 56 -3 62 -5 65 -25z m242 2 c0 -19 -20 -29 -32 -17 -15 15 -2 43 17 36
8 -3 15 -12 15 -19z m-980 -165 c0 -18 -7 -20 -65 -20 -58 0 -65 2 -65 20 0
18 7 20 65 20 58 0 65 -2 65 -20z m740 0 c0 -18 -7 -20 -65 -20 -58 0 -65 2
-65 20 0 18 7 20 65 20 58 0 65 -2 65 -20z m-1072 -83 c2 -12 -3 -17 -17 -17
-12 0 -21 6 -21 13 0 31 32 34 38 4z m1310 0 c2 -12 -3 -17 -17 -17 -12 0 -21
6 -21 13 0 31 32 34 38 4z m-818 -122 c0 -58 -2 -65 -20 -65 -18 0 -20 7 -20
65 0 58 2 65 20 65 18 0 20 -7 20 -65z m170 0 c0 -63 -1 -65 -25 -65 -24 0
-25 2 -25 65 0 63 1 65 25 65 24 0 25 -2 25 -65z m160 0 c0 -58 -2 -65 -20
-65 -18 0 -20 7 -20 65 0 58 2 65 20 65 18 0 20 -7 20 -65z m-410 -285 c0 -13
-7 -20 -20 -20 -13 0 -20 7 -20 20 0 13 7 20 20 20 13 0 20 -7 20 -20z m248 3
c5 -17 -26 -29 -40 -15 -6 6 -7 15 -3 22 9 14 37 9 43 -7z m242 -3 c0 -13 -7
-20 -20 -20 -19 0 -27 20 -13 33 13 14 33 6 33 -13z"/>
<path d="M4093 3415 c-10 -10 -9 -14 2 -18 7 -3 16 1 19 8 7 20 -6 26 -21 10z"/>
<path d="M4045 3409 c-4 -6 -2 -16 5 -22 10 -9 11 -9 6 0 -3 6 -1 13 6 15 9 3
9 6 1 11 -7 4 -15 2 -18 -4z"/>
<path d="M3992 3388 c-17 -17 -15 -28 3 -22 11 5 15 -1 15 -26 0 -17 4 -29 8
-26 4 2 14 1 22 -5 12 -6 12 -9 2 -9 -7 0 -20 -7 -28 -15 -20 -20 -5 -19 23 0
l22 16 -25 46 c-30 57 -28 55 -42 41z"/>
<path d="M3962 3335 c11 -25 20 -30 31 -19 5 5 -28 44 -38 44 -2 0 1 -11 7
-25z"/>
<path d="M1693 3054 l-93 -74 0 -65 c0 -35 5 -67 11 -70 5 -4 45 16 88 45 l78
52 7 91 c3 50 5 91 4 92 -2 2 -45 -31 -95 -71z"/>
<path d="M4059 2927 l-77 -72 -11 -78 c-6 -43 -21 -109 -34 -148 -13 -38 -22
-69 -20 -69 6 0 78 59 122 98 20 19 44 38 54 44 16 8 18 7 14 -9 -9 -31 -20
-108 -14 -103 23 23 70 391 51 403 -5 3 -43 -27 -85 -66z"/>
<path d="M1770 2714 c0 -5 7 -18 15 -28 12 -16 15 -17 15 -4 0 8 -7 21 -15 28
-8 7 -15 9 -15 4z"/>
<path d="M1714 2686 c-25 -19 -12 -66 19 -66 12 0 29 4 37 10 12 7 12 12 1 34
-17 31 -34 38 -57 22z m36 -26 c0 -23 -25 -27 -33 -6 -7 16 1 26 20 26 7 0 13
-9 13 -20z"/>
<path d="M1658 2632 c8 -5 11 -20 8 -36 -3 -14 -1 -24 3 -22 14 9 7 59 -9 63
-12 4 -12 2 -2 -5z"/>
<path d="M1760 2600 c-14 -11 -20 -20 -14 -20 14 0 50 27 44 33 -3 3 -16 -3
-30 -13z"/>
<path d="M4000 2392 c-66 -130 -142 -232 -247 -332 -154 -147 -282 -226 -473
-292 -78 -27 -283 -68 -333 -68 l-22 0 21 18 c12 9 48 40 80 68 33 29 73 63
89 77 l30 26 -40 -9 c-22 -5 -92 -13 -155 -16 l-115 -7 -65 -56 c-104 -90
-104 -90 -83 -99 10 -4 99 -7 198 -7 151 1 194 5 270 23 392 97 696 339 867
690 22 46 38 85 36 87 -2 3 -29 -44 -58 -103z"/>
<path d="M1883 2308 l-62 -51 30 -43 c16 -24 68 -84 115 -133 l84 -89 -120
-108 c-109 -96 -135 -129 -103 -129 6 0 66 48 132 108 106 94 123 106 140 96
14 -10 23 -9 40 3 34 24 101 88 101 97 0 4 -13 17 -29 29 -62 46 -153 137
-201 203 -29 38 -55 69 -58 69 -4 0 -35 -24 -69 -52z"/>
<path d="M2229 1938 c-6 -20 -6 -39 0 -42 4 -3 7 6 7 20 0 20 -4 32 -7 22z"/>
<path d="M318 1310 c-63 -34 -92 -82 -96 -161 -4 -59 -1 -74 21 -111 36 -62
88 -88 173 -88 44 1 82 7 104 18 l35 17 3 78 3 77 -71 0 c-40 0 -70 -4 -70
-10 0 -5 23 -10 50 -10 l50 0 0 -60 c0 -56 -2 -61 -26 -70 -42 -16 -126 -12
-164 9 -51 27 -83 93 -76 154 10 95 71 149 165 149 25 -1 62 -8 83 -16 30 -13
37 -13 41 -2 8 21 -64 46 -131 46 -37 -1 -70 -8 -94 -20z"/>
<path d="M730 1200 c0 -153 13 -198 67 -231 28 -17 45 -21 98 -17 116 7 145
60 145 262 0 108 -1 116 -19 116 -18 0 -20 -10 -23 -146 l-3 -146 -33 -29
c-26 -23 -42 -29 -78 -29 -97 0 -116 35 -122 218 -3 104 -7 132 -18 132 -11 0
-14 -26 -14 -130z"/>
<path d="M1210 1139 c0 -176 1 -190 18 -187 15 3 17 18 14 167 -2 105 1 160 7
156 6 -3 67 -78 137 -165 83 -105 133 -160 145 -160 18 0 19 11 19 190 0 161
-2 190 -15 190 -12 0 -15 -28 -17 -166 l-3 -166 -133 166 c-91 113 -139 166
-152 166 -19 0 -20 -8 -20 -191z"/>
<path d="M1738 1122 c-3 -229 -8 -249 -68 -275 -22 -9 -27 -16 -20 -27 8 -12
13 -12 44 3 70 33 76 55 76 295 0 177 -2 212 -14 212 -12 0 -15 -36 -18 -208z"/>
<path d="M2082 1313 c-34 -66 -154 -355 -149 -360 15 -14 36 10 57 66 l22 61
95 0 94 0 29 -65 c18 -39 35 -65 45 -65 8 0 15 3 15 8 0 4 -36 88 -78 187 -63
146 -82 181 -99 183 -13 2 -25 -4 -31 -15z m72 -116 c14 -37 26 -72 26 -77 0
-6 -33 -10 -76 -10 -57 0 -75 3 -71 13 2 6 19 47 37 90 38 90 42 90 84 -16z"/>
<path d="M2450 1140 c0 -161 2 -190 15 -190 12 0 15 28 17 167 l3 167 133
-167 c92 -116 138 -167 152 -167 19 0 20 7 20 190 0 161 -2 190 -15 190 -12 0
-15 -28 -17 -167 l-3 -168 -134 168 c-86 108 -141 167 -152 167 -18 0 -19 -12
-19 -190z"/>
<path d="M3230 1140 c0 -183 1 -190 20 -190 18 0 20 7 20 75 l0 75 73 0 c53 0
80 5 103 19 41 25 60 72 48 118 -16 63 -79 92 -206 93 l-58 0 0 -190z m197
134 c21 -16 29 -31 31 -61 5 -60 -28 -83 -119 -83 l-69 0 0 86 0 86 65 -4 c45
-3 73 -10 92 -24z"/>
<path d="M3684 1148 c-44 -100 -80 -185 -82 -190 -2 -4 4 -8 13 -8 10 0 27 23
46 65 l29 65 94 0 93 0 24 -61 c23 -58 42 -80 56 -65 4 3 -29 89 -73 191 -67
157 -82 185 -100 185 -18 0 -33 -27 -100 -182z m170 -15 c7 -22 6 -23 -69 -23
-76 0 -77 0 -71 24 3 13 20 55 37 92 l32 69 32 -70 c18 -38 35 -80 39 -92z"/>
<path d="M4070 1326 c0 -2 27 -87 59 -188 58 -179 60 -183 88 -186 l29 -3 45
150 c24 83 47 151 51 151 4 0 23 -53 43 -117 20 -65 41 -133 46 -150 9 -27 16
-33 38 -33 27 0 29 5 84 178 32 97 57 183 57 190 0 6 -6 12 -14 12 -13 0 -27
-38 -104 -287 -8 -29 -19 -53 -22 -53 -4 0 -31 77 -60 170 -41 131 -57 170
-69 168 -11 -2 -31 -55 -65 -168 -27 -91 -50 -167 -52 -169 -8 -9 -14 8 -65
172 -43 137 -56 167 -71 167 -10 0 -18 -2 -18 -4z"/>
<path d="M4864 1293 c-9 -21 -45 -105 -81 -186 -35 -82 -62 -151 -59 -154 14
-14 34 10 56 66 l25 61 93 0 93 0 29 -65 c18 -39 35 -65 45 -65 8 0 15 3 15 8
0 4 -35 88 -78 187 -65 149 -82 181 -100 183 -18 3 -26 -4 -38 -35z m74 -81
c18 -43 32 -84 32 -90 0 -8 -23 -12 -70 -12 -49 0 -70 4 -70 13 0 18 61 167
69 167 4 0 21 -35 39 -78z"/>
<path d="M5240 1140 c0 -183 1 -190 20 -190 18 0 20 7 20 85 l0 85 53 0 52 0
54 -85 c36 -58 59 -85 72 -85 11 0 19 2 19 5 0 3 -22 39 -50 81 -50 75 -58 94
-41 94 5 0 23 13 40 29 59 55 30 142 -54 161 -22 5 -73 10 -112 10 l-73 0 0
-190z m210 135 c27 -24 26 -76 -1 -101 -15 -14 -40 -20 -95 -22 l-74 -4 0 77
0 78 75 -5 c53 -4 81 -10 95 -23z"/>
<path d="M1978 523 c6 -2 18 -2 25 0 6 3 1 5 -13 5 -14 0 -19 -2 -12 -5z"/>
<path d="M3801 526 c2 -2 18 -6 34 -10 22 -5 26 -4 15 4 -14 9 -59 15 -49 6z"/>
<path d="M1717 478 c15 -24 30 -61 34 -83 6 -40 7 -40 8 -6 0 18 11 50 22 70
l21 36 -24 -29 -24 -28 -27 41 c-15 23 -30 41 -32 41 -3 0 7 -19 22 -42z"/>
<path d="M1921 494 c-47 -60 0 -142 75 -131 26 4 26 4 -7 6 -46 1 -73 30 -73
78 0 25 7 41 23 54 13 11 19 19 13 19 -6 0 -20 -12 -31 -26z"/>
<path d="M2032 506 c39 -29 43 -80 10 -119 -14 -16 -14 -17 0 -12 21 8 38 57
31 87 -7 27 -32 58 -47 58 -6 0 -3 -6 6 -14z"/>
<path d="M2171 473 c-1 -67 12 -101 44 -109 42 -10 72 3 84 37 14 40 14 119 1
119 -6 0 -10 -28 -10 -63 0 -69 -10 -87 -51 -87 -37 0 -51 21 -59 93 l-7 62
-2 -52z"/>
<path d="M2572 443 c-18 -42 -30 -78 -28 -80 2 -2 9 10 16 27 11 27 17 30 55
30 38 0 44 -3 55 -30 7 -17 14 -29 16 -27 8 8 -59 157 -70 157 -7 0 -27 -34
-44 -77z m63 31 c8 -20 15 -38 15 -40 0 -2 -16 -4 -35 -4 -19 0 -35 2 -35 4 0
9 31 76 35 76 3 0 12 -16 20 -36z"/>
<path d="M2793 440 c0 -47 2 -66 4 -42 4 37 7 42 28 42 18 0 32 -12 51 -40 15
-22 29 -38 32 -36 2 3 -6 19 -18 35 l-21 31 20 26 c16 20 18 31 10 45 -5 10
-17 19 -26 19 -15 0 -15 -1 1 -13 10 -7 17 -22 15 -33 -3 -14 -14 -20 -46 -22
-42 -3 -42 -3 -46 35 -2 21 -4 0 -4 -47z"/>
<path d="M3010 440 l0 -80 53 2 52 2 -47 3 c-47 4 -48 5 -48 39 0 33 1 34 43
35 l42 2 -40 6 c-37 6 -40 8 -40 39 0 17 -3 32 -7 32 -5 0 -8 -36 -8 -80z"/>
<path d="M3352 443 l-2 -83 44 0 c28 0 48 6 57 17 13 15 12 15 -8 5 -12 -7
-35 -12 -52 -12 -29 0 -31 3 -31 35 0 34 1 35 39 35 30 0 44 -6 55 -22 9 -12
16 -17 16 -11 0 6 -6 18 -13 25 -7 7 -13 28 -12 47 0 22 -5 36 -15 38 -12 4
-12 3 -2 -5 8 -5 12 -20 10 -33 -2 -20 -10 -25 -40 -27 -36 -3 -37 -2 -41 35
-2 21 -4 1 -5 -44z"/>
<path d="M3572 495 c0 -16 2 -22 5 -12 2 9 2 23 0 30 -3 6 -5 -1 -5 -18z"/>
<path d="M3771 501 c-14 -25 5 -47 49 -59 30 -7 35 -12 35 -38 0 -28 -2 -29
-47 -29 -25 0 -44 -3 -41 -7 7 -13 78 -9 91 4 16 16 15 55 0 65 -7 4 -26 13
-43 18 -24 8 -30 16 -30 38 1 32 -1 33 -14 8z"/>
<path d="M4011 438 c2 -86 6 -76 11 25 2 31 0 57 -4 57 -5 0 -7 -37 -7 -82z"/>
<path d="M3570 445 c0 -6 16 -9 40 -7 22 2 40 5 40 7 0 2 -18 5 -40 7 -24 2
-40 -1 -40 -7z"/>
<path d="M3571 388 c-1 -27 1 -28 47 -26 l47 1 -42 4 c-33 3 -43 8 -46 26 -4
18 -5 17 -6 -5z"/>
</g>
</svg>
